<?xml version="1.0" encoding="UTF-8"?><svg xmlns="http://www.w3.org/2000/svg" viewBox="0 0 212 242"><defs><clipPath id="shirt"><path d="m78 31 28 10 28-10 26 15 30 24-18 38-20-12v116H60V96l-20 12-18-38 30-24z"/></clipPath><filter id="shadow"><feDropShadow dx="0" dy="8" stdDeviation="7" flood-opacity=".28"/></filter></defs><g filter="url(#shadow)"><path d="m78 31 28 10 28-10 26 15 30 24-18 38-20-12v116H60V96l-20 12-18-38 30-24z" fill="#7a2048" stroke="#fff" stroke-opacity=".3" stroke-width="2"/><g clip-path="url(#shirt)"><path d="m55 48-33 22 18 37 31-18V48zm102 0 33 22-18 37-31-18V48z" fill="#95c9e8"/></g><text x="106" y="137" fill="#95c9e8" font-family="Arial" font-size="22" font-weight="800" text-anchor="middle">AVL</text></g></svg>